# xmcd
#
# Track frame offsets: 
#        150
#        9936
#        42668
#        54416
#        73385
#        89776
#        127232
#        143596
#        155244
#        165078
#        177716
#        216077
#        228473
#        240891
#
# Disc length: 3451 seconds
#
# Revision: 0
# Processed by: cddbd v1.5.2PL0 Copyright (c) Steve Scherf et al.
# Submitted via: ExactAudioCopy v1.0b1
#
DISCID=c90d790e
DTITLE=Keith Brion, Royal Norwegian Navy Band - Sousa: Music for wind 
DTITLE=band 9
DYEAR=2008
DGENRE=Wind Band
TTITLE0=From Maine to Oregon, march  
TTITLE1=The Charlatan, operetta   Overture
TTITLE2=Flags of Freedom, march 
TTITLE3=Nymphalin, orchestra
TTITLE4=Dwellers of the Western World, orchestra   Red Man
TTITLE5=Dwellers of the Western World, orchestra   White Man 
TTITLE6=Dwellers of the Western World, orchestra   Black Man 
TTITLE7=The Man Behind the Gun, march 
TTITLE8=The Lily Bells, wind band
TTITLE9=The Chantyman's March, wind band 
TTITLE10=When My Dreams Come True, wind band 
TTITLE11=U.S. Field Artillery, march
TTITLE12=Harmonica Wizard March, wind band
TTITLE13=University of Illinois march, wind band
EXTD=
EXTT0=
EXTT1=
EXTT2=
EXTT3=
EXTT4=
EXTT5=
EXTT6=
EXTT7=
EXTT8=
EXTT9=
EXTT10=
EXTT11=
EXTT12=
EXTT13=
PLAYORDER=
